<svg width="128" height="19" viewBox="0 0 128 19" fill="none" xmlns="http://www.w3.org/2000/svg">
<path d="M8.59375 11.4766V13.6875L0.734375 10.2812V8.39062L8.59375 4.98438V7.21094L3.11719 9.32031L8.59375 11.4766ZM15.0234 10.5391H12.8984V13.7812C12.8984 14.2448 12.7891 14.5964 12.5703 14.8359C12.3516 15.0755 12.0755 15.1953 11.7422 15.1953C11.3932 15.1953 11.112 15.0781 10.8984 14.8438C10.6849 14.6042 10.5781 14.2552 10.5781 13.7969V4.96875C10.5781 4.45833 10.6953 4.09375 10.9297 3.875C11.1641 3.65625 11.5365 3.54688 12.0469 3.54688H15.0234C15.9036 3.54688 16.5807 3.61458 17.0547 3.75C17.5234 3.88021 17.9271 4.09635 18.2656 4.39844C18.6094 4.70052 18.8698 5.07031 19.0469 5.50781C19.224 5.94531 19.3125 6.4375 19.3125 6.98438C19.3125 8.15104 18.9531 9.03646 18.2344 9.64062C17.5156 10.2396 16.4453 10.5391 15.0234 10.5391ZM14.4609 5.28906H12.8984V8.78906H14.4609C15.0078 8.78906 15.4635 8.73177 15.8281 8.61719C16.1979 8.5026 16.4792 8.3151 16.6719 8.05469C16.8646 7.79427 16.9609 7.45312 16.9609 7.03125C16.9609 6.52604 16.8125 6.11458 16.5156 5.79688C16.1823 5.45833 15.4974 5.28906 14.4609 5.28906ZM29.9531 11.5625C29.9531 12.2552 29.7734 12.8776 29.4141 13.4297C29.0599 13.9818 28.5391 14.4141 27.8516 14.7266C27.1641 15.0391 26.349 15.1953 25.4062 15.1953C24.276 15.1953 23.3438 14.9818 22.6094 14.5547C22.0885 14.2474 21.6641 13.8385 21.3359 13.3281C21.013 12.8125 20.8516 12.3125 20.8516 11.8281C20.8516 11.5469 20.9479 11.3073 21.1406 11.1094C21.3385 10.9062 21.5885 10.8047 21.8906 10.8047C22.1354 10.8047 22.3411 10.8828 22.5078 11.0391C22.6797 11.1953 22.8255 11.4271 22.9453 11.7344C23.0911 12.099 23.2474 12.4036 23.4141 12.6484C23.5859 12.8932 23.8255 13.0964 24.1328 13.2578C24.4401 13.4141 24.8438 13.4922 25.3438 13.4922C26.0312 13.4922 26.5885 13.3333 27.0156 13.0156C27.4479 12.6927 27.6641 12.2917 27.6641 11.8125C27.6641 11.4323 27.5469 11.125 27.3125 10.8906C27.0833 10.651 26.7839 10.4688 26.4141 10.3438C26.0495 10.2188 25.5599 10.0859 24.9453 9.94531C24.1224 9.7526 23.4323 9.52865 22.875 9.27344C22.3229 9.01302 21.8828 8.66146 21.5547 8.21875C21.2318 7.77083 21.0703 7.21615 21.0703 6.55469C21.0703 5.92448 21.2422 5.36458 21.5859 4.875C21.9297 4.38542 22.4271 4.01042 23.0781 3.75C23.7292 3.48438 24.4948 3.35156 25.375 3.35156C26.0781 3.35156 26.6849 3.4401 27.1953 3.61719C27.7109 3.78906 28.138 4.02083 28.4766 4.3125C28.8151 4.59896 29.0625 4.90104 29.2188 5.21875C29.375 5.53646 29.4531 5.84635 29.4531 6.14844C29.4531 6.42448 29.3542 6.67448 29.1562 6.89844C28.9635 7.11719 28.7214 7.22656 28.4297 7.22656C28.1641 7.22656 27.9609 7.16146 27.8203 7.03125C27.6849 6.89583 27.5365 6.67708 27.375 6.375C27.1667 5.94271 26.9167 5.60677 26.625 5.36719C26.3333 5.1224 25.8646 5 25.2188 5C24.6198 5 24.1354 5.13281 23.7656 5.39844C23.401 5.65885 23.2188 5.97396 23.2188 6.34375C23.2188 6.57292 23.2812 6.77083 23.4062 6.9375C23.5312 7.10417 23.7031 7.2474 23.9219 7.36719C24.1406 7.48698 24.362 7.58073 24.5859 7.64844C24.8099 7.71615 25.1797 7.8151 25.6953 7.94531C26.3411 8.09635 26.9245 8.26302 27.4453 8.44531C27.9714 8.6276 28.4167 8.84896 28.7812 9.10938C29.151 9.36979 29.4375 9.70052 29.6406 10.1016C29.849 10.4974 29.9531 10.9844 29.9531 11.5625Z" fill="black"/>
<path d="M33 3L33 16" stroke="black" stroke-linecap="round"/>
<path d="M46.0078 11.3828C46.0078 11.7474 45.9167 12.1432 45.7344 12.5703C45.5573 12.9922 45.276 13.4089 44.8906 13.8203C44.5052 14.2266 44.013 14.5573 43.4141 14.8125C42.8151 15.0677 42.1172 15.1953 41.3203 15.1953C40.7161 15.1953 40.1667 15.138 39.6719 15.0234C39.1771 14.9089 38.7266 14.7318 38.3203 14.4922C37.9193 14.2474 37.5495 13.9271 37.2109 13.5312C36.9089 13.1719 36.651 12.7708 36.4375 12.3281C36.224 11.8802 36.0625 11.4036 35.9531 10.8984C35.849 10.3932 35.7969 9.85677 35.7969 9.28906C35.7969 8.36719 35.9297 7.54167 36.1953 6.8125C36.4661 6.08333 36.8516 5.46094 37.3516 4.94531C37.8516 4.42448 38.4375 4.02865 39.1094 3.75781C39.7812 3.48698 40.4974 3.35156 41.2578 3.35156C42.1849 3.35156 43.0104 3.53646 43.7344 3.90625C44.4583 4.27604 45.013 4.73438 45.3984 5.28125C45.7839 5.82292 45.9766 6.33594 45.9766 6.82031C45.9766 7.08594 45.8828 7.32031 45.6953 7.52344C45.5078 7.72656 45.2812 7.82812 45.0156 7.82812C44.7188 7.82812 44.4948 7.75781 44.3438 7.61719C44.1979 7.47656 44.0339 7.23438 43.8516 6.89062C43.5495 6.32292 43.1927 5.89844 42.7812 5.61719C42.375 5.33594 41.8724 5.19531 41.2734 5.19531C40.3203 5.19531 39.5599 5.55729 38.9922 6.28125C38.4297 7.00521 38.1484 8.03385 38.1484 9.36719C38.1484 10.2578 38.2734 11 38.5234 11.5938C38.7734 12.1823 39.1276 12.6224 39.5859 12.9141C40.0443 13.2057 40.5807 13.3516 41.1953 13.3516C41.862 13.3516 42.4245 13.1875 42.8828 12.8594C43.3464 12.526 43.6953 12.0391 43.9297 11.3984C44.0286 11.0964 44.151 10.8516 44.2969 10.6641C44.4427 10.4714 44.6771 10.375 45 10.375C45.276 10.375 45.513 10.4714 45.7109 10.6641C45.9089 10.8568 46.0078 11.0964 46.0078 11.3828ZM55.9297 10.8594C55.9297 11.4948 55.8307 12.0807 55.6328 12.6172C55.4349 13.1536 55.1484 13.6146 54.7734 14C54.3984 14.3854 53.9505 14.6823 53.4297 14.8906C52.9089 15.0938 52.3229 15.1953 51.6719 15.1953C51.026 15.1953 50.4453 15.0911 49.9297 14.8828C49.4141 14.6745 48.9661 14.3776 48.5859 13.9922C48.2109 13.6016 47.9245 13.1432 47.7266 12.6172C47.5339 12.0859 47.4375 11.5 47.4375 10.8594C47.4375 10.2135 47.5365 9.6224 47.7344 9.08594C47.9323 8.54948 48.2161 8.09115 48.5859 7.71094C48.9557 7.33073 49.4036 7.03906 49.9297 6.83594C50.4557 6.6276 51.0365 6.52344 51.6719 6.52344C52.3177 6.52344 52.9036 6.6276 53.4297 6.83594C53.9557 7.04427 54.4062 7.34115 54.7812 7.72656C55.1562 8.11198 55.4401 8.57031 55.6328 9.10156C55.8307 9.63281 55.9297 10.2188 55.9297 10.8594ZM53.7891 10.8594C53.7891 9.98958 53.5964 9.3125 53.2109 8.82812C52.8307 8.34375 52.3177 8.10156 51.6719 8.10156C51.2552 8.10156 50.888 8.21094 50.5703 8.42969C50.2526 8.64323 50.0078 8.96094 49.8359 9.38281C49.6641 9.80469 49.5781 10.2969 49.5781 10.8594C49.5781 11.4167 49.6615 11.9036 49.8281 12.3203C50 12.737 50.2422 13.0573 50.5547 13.2812C50.8724 13.5 51.2448 13.6094 51.6719 13.6094C52.3177 13.6094 52.8307 13.3672 53.2109 12.8828C53.5964 12.3932 53.7891 11.7188 53.7891 10.8594ZM59.5547 7.70312V7.96094C59.9297 7.46615 60.3385 7.10417 60.7812 6.875C61.2292 6.64062 61.7422 6.52344 62.3203 6.52344C62.8828 6.52344 63.3854 6.64583 63.8281 6.89062C64.2708 7.13542 64.6016 7.48177 64.8203 7.92969C64.9609 8.1901 65.0521 8.47135 65.0938 8.77344C65.1354 9.07552 65.1562 9.46094 65.1562 9.92969V13.8984C65.1562 14.3255 65.0573 14.6484 64.8594 14.8672C64.6667 15.0859 64.4141 15.1953 64.1016 15.1953C63.7839 15.1953 63.526 15.0833 63.3281 14.8594C63.1302 14.6354 63.0312 14.3151 63.0312 13.8984V10.3438C63.0312 9.64062 62.9323 9.10417 62.7344 8.73438C62.5417 8.35938 62.1536 8.17188 61.5703 8.17188C61.1901 8.17188 60.8438 8.28646 60.5312 8.51562C60.2188 8.73958 59.9896 9.04948 59.8438 9.44531C59.7396 9.76302 59.6875 10.3568 59.6875 11.2266V13.8984C59.6875 14.3307 59.5859 14.6562 59.3828 14.875C59.1849 15.0885 58.9271 15.1953 58.6094 15.1953C58.3021 15.1953 58.0495 15.0833 57.8516 14.8594C57.6536 14.6354 57.5547 14.3151 57.5547 13.8984V7.73438C57.5547 7.32812 57.6432 7.02604 57.8203 6.82812C57.9974 6.625 58.2396 6.52344 58.5469 6.52344C58.7344 6.52344 58.9036 6.56771 59.0547 6.65625C59.2057 6.74479 59.3255 6.8776 59.4141 7.05469C59.5078 7.23177 59.5547 7.44792 59.5547 7.70312ZM74.1562 12.4062C74.1562 12.9948 74.013 13.5 73.7266 13.9219C73.4401 14.3385 73.0156 14.6562 72.4531 14.875C71.8958 15.0885 71.2161 15.1953 70.4141 15.1953C69.6484 15.1953 68.9922 15.0781 68.4453 14.8438C67.8984 14.6094 67.4948 14.3177 67.2344 13.9688C66.974 13.6146 66.8438 13.2604 66.8438 12.9062C66.8438 12.6719 66.9271 12.4714 67.0938 12.3047C67.2604 12.138 67.4714 12.0547 67.7266 12.0547C67.9505 12.0547 68.1224 12.1094 68.2422 12.2188C68.362 12.3281 68.4766 12.4818 68.5859 12.6797C68.8047 13.0599 69.0651 13.3438 69.3672 13.5312C69.6745 13.7188 70.0911 13.8125 70.6172 13.8125C71.0443 13.8125 71.3932 13.7188 71.6641 13.5312C71.9401 13.3385 72.0781 13.1198 72.0781 12.875C72.0781 12.5 71.9349 12.2266 71.6484 12.0547C71.3672 11.8828 70.901 11.7188 70.25 11.5625C69.5156 11.3802 68.9167 11.1901 68.4531 10.9922C67.9948 10.7891 67.6276 10.5234 67.3516 10.1953C67.0755 9.86719 66.9375 9.46354 66.9375 8.98438C66.9375 8.55729 67.0651 8.15365 67.3203 7.77344C67.5755 7.39323 67.9505 7.09115 68.4453 6.86719C68.9453 6.63802 69.5469 6.52344 70.25 6.52344C70.8021 6.52344 71.2969 6.58073 71.7344 6.69531C72.1771 6.8099 72.5443 6.96354 72.8359 7.15625C73.1328 7.34896 73.3568 7.5625 73.5078 7.79688C73.6641 8.03125 73.7422 8.26042 73.7422 8.48438C73.7422 8.72917 73.6589 8.92969 73.4922 9.08594C73.3307 9.24219 73.099 9.32031 72.7969 9.32031C72.5781 9.32031 72.3906 9.25781 72.2344 9.13281C72.0833 9.00781 71.9089 8.82031 71.7109 8.57031C71.5495 8.36198 71.3594 8.19531 71.1406 8.07031C70.9219 7.94531 70.625 7.88281 70.25 7.88281C69.8646 7.88281 69.5443 7.96615 69.2891 8.13281C69.0339 8.29427 68.9062 8.4974 68.9062 8.74219C68.9062 8.96615 69 9.15104 69.1875 9.29688C69.375 9.4375 69.6276 9.55469 69.9453 9.64844C70.263 9.74219 70.7005 9.85677 71.2578 9.99219C71.9193 10.1536 72.4583 10.3464 72.875 10.5703C73.2969 10.7943 73.6146 11.0599 73.8281 11.3672C74.0469 11.6693 74.1562 12.0156 74.1562 12.4062ZM81.5 13.9922V13.7188C81.2448 14.0417 80.9766 14.3125 80.6953 14.5312C80.4141 14.75 80.1068 14.9115 79.7734 15.0156C79.4401 15.125 79.0599 15.1797 78.6328 15.1797C78.1172 15.1797 77.6536 15.0729 77.2422 14.8594C76.8359 14.6458 76.5208 14.3516 76.2969 13.9766C76.0312 13.5234 75.8984 12.8724 75.8984 12.0234V7.79688C75.8984 7.36979 75.9948 7.05208 76.1875 6.84375C76.3802 6.63021 76.6354 6.52344 76.9531 6.52344C77.276 6.52344 77.5365 6.63021 77.7344 6.84375C77.9323 7.05729 78.0312 7.375 78.0312 7.79688V11.2109C78.0312 11.7057 78.0729 12.1224 78.1562 12.4609C78.2396 12.7943 78.388 13.0573 78.6016 13.25C78.8203 13.4375 79.1146 13.5312 79.4844 13.5312C79.8438 13.5312 80.1823 13.4245 80.5 13.2109C80.8177 12.9974 81.0495 12.7188 81.1953 12.375C81.3151 12.0729 81.375 11.4115 81.375 10.3906V7.79688C81.375 7.375 81.474 7.05729 81.6719 6.84375C81.8698 6.63021 82.1276 6.52344 82.4453 6.52344C82.763 6.52344 83.0182 6.63021 83.2109 6.84375C83.4036 7.05208 83.5 7.36979 83.5 7.79688V13.9766C83.5 14.3828 83.4062 14.6875 83.2188 14.8906C83.0365 15.0938 82.7995 15.1953 82.5078 15.1953C82.2161 15.1953 81.974 15.0911 81.7812 14.8828C81.5938 14.6693 81.5 14.3724 81.5 13.9922ZM85.6328 13.8984V4.64844C85.6328 4.22135 85.7266 3.89844 85.9141 3.67969C86.1068 3.46094 86.3646 3.35156 86.6875 3.35156C87.0104 3.35156 87.2708 3.46094 87.4688 3.67969C87.6667 3.89323 87.7656 4.21615 87.7656 4.64844V13.8984C87.7656 14.3307 87.6641 14.6562 87.4609 14.875C87.263 15.0885 87.0052 15.1953 86.6875 15.1953C86.375 15.1953 86.1198 15.0833 85.9219 14.8594C85.7292 14.6354 85.6328 14.3151 85.6328 13.8984ZM90.0938 6.71094H90.3281V5.42969C90.3281 5.08594 90.3359 4.81771 90.3516 4.625C90.3724 4.42708 90.4245 4.25781 90.5078 4.11719C90.5911 3.97135 90.7109 3.85417 90.8672 3.76562C91.0234 3.67188 91.1979 3.625 91.3906 3.625C91.6615 3.625 91.9062 3.72656 92.125 3.92969C92.2708 4.0651 92.362 4.23177 92.3984 4.42969C92.4401 4.6224 92.4609 4.89844 92.4609 5.25781V6.71094H93.2422C93.5443 6.71094 93.7734 6.78385 93.9297 6.92969C94.0911 7.07031 94.1719 7.2526 94.1719 7.47656C94.1719 7.76302 94.0573 7.96354 93.8281 8.07812C93.6042 8.19271 93.2812 8.25 92.8594 8.25H92.4609V12.1719C92.4609 12.5052 92.4714 12.763 92.4922 12.9453C92.5182 13.1224 92.5807 13.2682 92.6797 13.3828C92.7839 13.4922 92.9505 13.5469 93.1797 13.5469C93.3047 13.5469 93.474 13.526 93.6875 13.4844C93.901 13.4375 94.0677 13.4141 94.1875 13.4141C94.3594 13.4141 94.513 13.4844 94.6484 13.625C94.7891 13.7604 94.8594 13.9297 94.8594 14.1328C94.8594 14.4766 94.6719 14.7396 94.2969 14.9219C93.9219 15.1042 93.3828 15.1953 92.6797 15.1953C92.013 15.1953 91.5078 15.0833 91.1641 14.8594C90.8203 14.6354 90.5938 14.3255 90.4844 13.9297C90.3802 13.5339 90.3281 13.0052 90.3281 12.3438V8.25H90.0469C89.7396 8.25 89.5052 8.17708 89.3438 8.03125C89.1823 7.88542 89.1016 7.70052 89.1016 7.47656C89.1016 7.2526 89.1849 7.07031 89.3516 6.92969C89.5234 6.78385 89.7708 6.71094 90.0938 6.71094ZM97.7812 7.73438V13.8984C97.7812 14.3255 97.6797 14.6484 97.4766 14.8672C97.2734 15.0859 97.0156 15.1953 96.7031 15.1953C96.3906 15.1953 96.1354 15.0833 95.9375 14.8594C95.7448 14.6354 95.6484 14.3151 95.6484 13.8984V7.79688C95.6484 7.375 95.7448 7.05729 95.9375 6.84375C96.1354 6.63021 96.3906 6.52344 96.7031 6.52344C97.0156 6.52344 97.2734 6.63021 97.4766 6.84375C97.6797 7.05729 97.7812 7.35417 97.7812 7.73438ZM96.7266 5.53125C96.4297 5.53125 96.1745 5.4401 95.9609 5.25781C95.7526 5.07552 95.6484 4.81771 95.6484 4.48438C95.6484 4.18229 95.7552 3.9349 95.9688 3.74219C96.1875 3.54427 96.4401 3.44531 96.7266 3.44531C97.0026 3.44531 97.2474 3.53385 97.4609 3.71094C97.6745 3.88802 97.7812 4.14583 97.7812 4.48438C97.7812 4.8125 97.6771 5.07031 97.4688 5.25781C97.2604 5.4401 97.013 5.53125 96.7266 5.53125ZM101.93 7.70312V7.96094C102.305 7.46615 102.714 7.10417 103.156 6.875C103.604 6.64062 104.117 6.52344 104.695 6.52344C105.258 6.52344 105.76 6.64583 106.203 6.89062C106.646 7.13542 106.977 7.48177 107.195 7.92969C107.336 8.1901 107.427 8.47135 107.469 8.77344C107.51 9.07552 107.531 9.46094 107.531 9.92969V13.8984C107.531 14.3255 107.432 14.6484 107.234 14.8672C107.042 15.0859 106.789 15.1953 106.477 15.1953C106.159 15.1953 105.901 15.0833 105.703 14.8594C105.505 14.6354 105.406 14.3151 105.406 13.8984V10.3438C105.406 9.64062 105.307 9.10417 105.109 8.73438C104.917 8.35938 104.529 8.17188 103.945 8.17188C103.565 8.17188 103.219 8.28646 102.906 8.51562C102.594 8.73958 102.365 9.04948 102.219 9.44531C102.115 9.76302 102.062 10.3568 102.062 11.2266V13.8984C102.062 14.3307 101.961 14.6562 101.758 14.875C101.56 15.0885 101.302 15.1953 100.984 15.1953C100.677 15.1953 100.424 15.0833 100.227 14.8594C100.029 14.6354 99.9297 14.3151 99.9297 13.8984V7.73438C99.9297 7.32812 100.018 7.02604 100.195 6.82812C100.372 6.625 100.615 6.52344 100.922 6.52344C101.109 6.52344 101.279 6.56771 101.43 6.65625C101.581 6.74479 101.701 6.8776 101.789 7.05469C101.883 7.23177 101.93 7.44792 101.93 7.70312ZM117.508 8.08594V14.2812C117.508 14.9896 117.432 15.599 117.281 16.1094C117.13 16.6198 116.888 17.0417 116.555 17.375C116.221 17.7083 115.784 17.9557 115.242 18.1172C114.706 18.2786 114.036 18.3594 113.234 18.3594C112.5 18.3594 111.844 18.2552 111.266 18.0469C110.688 17.8438 110.242 17.5781 109.93 17.25C109.617 16.9271 109.461 16.5938 109.461 16.25C109.461 15.9896 109.549 15.776 109.727 15.6094C109.904 15.4479 110.117 15.3672 110.367 15.3672C110.68 15.3672 110.953 15.5052 111.188 15.7812C111.302 15.9219 111.419 16.0625 111.539 16.2031C111.664 16.349 111.799 16.4714 111.945 16.5703C112.096 16.6745 112.276 16.75 112.484 16.7969C112.693 16.849 112.932 16.875 113.203 16.875C113.755 16.875 114.182 16.7969 114.484 16.6406C114.792 16.4896 115.005 16.276 115.125 16C115.25 15.724 115.323 15.4271 115.344 15.1094C115.365 14.7969 115.38 14.2917 115.391 13.5938C115.062 14.0521 114.682 14.401 114.25 14.6406C113.823 14.8802 113.312 15 112.719 15C112.005 15 111.38 14.8177 110.844 14.4531C110.312 14.0885 109.904 13.5781 109.617 12.9219C109.331 12.2656 109.188 11.5078 109.188 10.6484C109.188 10.0078 109.273 9.42969 109.445 8.91406C109.622 8.39844 109.872 7.96354 110.195 7.60938C110.518 7.25521 110.891 6.98958 111.312 6.8125C111.734 6.63021 112.198 6.53906 112.703 6.53906C113.307 6.53906 113.831 6.65625 114.273 6.89062C114.716 7.11979 115.128 7.48177 115.508 7.97656V7.6875C115.508 7.31771 115.599 7.03125 115.781 6.82812C115.964 6.625 116.198 6.52344 116.484 6.52344C116.896 6.52344 117.169 6.65885 117.305 6.92969C117.44 7.19531 117.508 7.58073 117.508 8.08594ZM111.328 10.7891C111.328 11.6536 111.516 12.3073 111.891 12.75C112.271 13.1927 112.76 13.4141 113.359 13.4141C113.714 13.4141 114.047 13.3203 114.359 13.1328C114.677 12.9401 114.935 12.6536 115.133 12.2734C115.331 11.888 115.43 11.4219 115.43 10.875C115.43 10.0052 115.237 9.32812 114.852 8.84375C114.471 8.35938 113.969 8.11719 113.344 8.11719C112.734 8.11719 112.245 8.34896 111.875 8.8125C111.51 9.27604 111.328 9.9349 111.328 10.7891ZM127.156 10.2812L119.297 13.7031V11.4922L124.789 9.33594L119.297 7.21094V5.01562L127.156 8.40625V10.2812Z" fill="black"/>
</svg>
