<svg width="110" height="19" viewBox="0 0 110 19" fill="none" xmlns="http://www.w3.org/2000/svg">
<path d="M5.69531 10.5391H3.57031V13.7812C3.57031 14.2448 3.46094 14.5964 3.24219 14.8359C3.02344 15.0755 2.7474 15.1953 2.41406 15.1953C2.0651 15.1953 1.78385 15.0781 1.57031 14.8438C1.35677 14.6042 1.25 14.2552 1.25 13.7969V4.96875C1.25 4.45833 1.36719 4.09375 1.60156 3.875C1.83594 3.65625 2.20833 3.54688 2.71875 3.54688H5.69531C6.57552 3.54688 7.2526 3.61458 7.72656 3.75C8.19531 3.88021 8.59896 4.09635 8.9375 4.39844C9.28125 4.70052 9.54167 5.07031 9.71875 5.50781C9.89583 5.94531 9.98438 6.4375 9.98438 6.98438C9.98438 8.15104 9.625 9.03646 8.90625 9.64062C8.1875 10.2396 7.11719 10.5391 5.69531 10.5391ZM5.13281 5.28906H3.57031V8.78906H5.13281C5.67969 8.78906 6.13542 8.73177 6.5 8.61719C6.86979 8.5026 7.15104 8.3151 7.34375 8.05469C7.53646 7.79427 7.63281 7.45312 7.63281 7.03125C7.63281 6.52604 7.48438 6.11458 7.1875 5.79688C6.85417 5.45833 6.16927 5.28906 5.13281 5.28906ZM20.625 11.5625C20.625 12.2552 20.4453 12.8776 20.0859 13.4297C19.7318 13.9818 19.2109 14.4141 18.5234 14.7266C17.8359 15.0391 17.0208 15.1953 16.0781 15.1953C14.9479 15.1953 14.0156 14.9818 13.2812 14.5547C12.7604 14.2474 12.3359 13.8385 12.0078 13.3281C11.6849 12.8125 11.5234 12.3125 11.5234 11.8281C11.5234 11.5469 11.6198 11.3073 11.8125 11.1094C12.0104 10.9062 12.2604 10.8047 12.5625 10.8047C12.8073 10.8047 13.013 10.8828 13.1797 11.0391C13.3516 11.1953 13.4974 11.4271 13.6172 11.7344C13.763 12.099 13.9193 12.4036 14.0859 12.6484C14.2578 12.8932 14.4974 13.0964 14.8047 13.2578C15.112 13.4141 15.5156 13.4922 16.0156 13.4922C16.7031 13.4922 17.2604 13.3333 17.6875 13.0156C18.1198 12.6927 18.3359 12.2917 18.3359 11.8125C18.3359 11.4323 18.2188 11.125 17.9844 10.8906C17.7552 10.651 17.4557 10.4688 17.0859 10.3438C16.7214 10.2188 16.2318 10.0859 15.6172 9.94531C14.7943 9.7526 14.1042 9.52865 13.5469 9.27344C12.9948 9.01302 12.5547 8.66146 12.2266 8.21875C11.9036 7.77083 11.7422 7.21615 11.7422 6.55469C11.7422 5.92448 11.9141 5.36458 12.2578 4.875C12.6016 4.38542 13.099 4.01042 13.75 3.75C14.401 3.48438 15.1667 3.35156 16.0469 3.35156C16.75 3.35156 17.3568 3.4401 17.8672 3.61719C18.3828 3.78906 18.8099 4.02083 19.1484 4.3125C19.487 4.59896 19.7344 4.90104 19.8906 5.21875C20.0469 5.53646 20.125 5.84635 20.125 6.14844C20.125 6.42448 20.026 6.67448 19.8281 6.89844C19.6354 7.11719 19.3932 7.22656 19.1016 7.22656C18.8359 7.22656 18.6328 7.16146 18.4922 7.03125C18.3568 6.89583 18.2083 6.67708 18.0469 6.375C17.8385 5.94271 17.5885 5.60677 17.2969 5.36719C17.0052 5.1224 16.5365 5 15.8906 5C15.2917 5 14.8073 5.13281 14.4375 5.39844C14.0729 5.65885 13.8906 5.97396 13.8906 6.34375C13.8906 6.57292 13.9531 6.77083 14.0781 6.9375C14.2031 7.10417 14.375 7.2474 14.5938 7.36719C14.8125 7.48698 15.0339 7.58073 15.2578 7.64844C15.4818 7.71615 15.8516 7.8151 16.3672 7.94531C17.013 8.09635 17.5964 8.26302 18.1172 8.44531C18.6432 8.6276 19.0885 8.84896 19.4531 9.10938C19.8229 9.36979 20.1094 9.70052 20.3125 10.1016C20.5208 10.4974 20.625 10.9844 20.625 11.5625Z" fill="black"/>
<path d="M24 3L24 16" stroke="black" stroke-linecap="round"/>
<path d="M37.0078 11.3828C37.0078 11.7474 36.9167 12.1432 36.7344 12.5703C36.5573 12.9922 36.276 13.4089 35.8906 13.8203C35.5052 14.2266 35.013 14.5573 34.4141 14.8125C33.8151 15.0677 33.1172 15.1953 32.3203 15.1953C31.7161 15.1953 31.1667 15.138 30.6719 15.0234C30.1771 14.9089 29.7266 14.7318 29.3203 14.4922C28.9193 14.2474 28.5495 13.9271 28.2109 13.5312C27.9089 13.1719 27.651 12.7708 27.4375 12.3281C27.224 11.8802 27.0625 11.4036 26.9531 10.8984C26.849 10.3932 26.7969 9.85677 26.7969 9.28906C26.7969 8.36719 26.9297 7.54167 27.1953 6.8125C27.4661 6.08333 27.8516 5.46094 28.3516 4.94531C28.8516 4.42448 29.4375 4.02865 30.1094 3.75781C30.7812 3.48698 31.4974 3.35156 32.2578 3.35156C33.1849 3.35156 34.0104 3.53646 34.7344 3.90625C35.4583 4.27604 36.013 4.73438 36.3984 5.28125C36.7839 5.82292 36.9766 6.33594 36.9766 6.82031C36.9766 7.08594 36.8828 7.32031 36.6953 7.52344C36.5078 7.72656 36.2812 7.82812 36.0156 7.82812C35.7188 7.82812 35.4948 7.75781 35.3438 7.61719C35.1979 7.47656 35.0339 7.23438 34.8516 6.89062C34.5495 6.32292 34.1927 5.89844 33.7812 5.61719C33.375 5.33594 32.8724 5.19531 32.2734 5.19531C31.3203 5.19531 30.5599 5.55729 29.9922 6.28125C29.4297 7.00521 29.1484 8.03385 29.1484 9.36719C29.1484 10.2578 29.2734 11 29.5234 11.5938C29.7734 12.1823 30.1276 12.6224 30.5859 12.9141C31.0443 13.2057 31.5807 13.3516 32.1953 13.3516C32.862 13.3516 33.4245 13.1875 33.8828 12.8594C34.3464 12.526 34.6953 12.0391 34.9297 11.3984C35.0286 11.0964 35.151 10.8516 35.2969 10.6641C35.4427 10.4714 35.6771 10.375 36 10.375C36.276 10.375 36.513 10.4714 36.7109 10.6641C36.9089 10.8568 37.0078 11.0964 37.0078 11.3828ZM46.9297 10.8594C46.9297 11.4948 46.8307 12.0807 46.6328 12.6172C46.4349 13.1536 46.1484 13.6146 45.7734 14C45.3984 14.3854 44.9505 14.6823 44.4297 14.8906C43.9089 15.0938 43.3229 15.1953 42.6719 15.1953C42.026 15.1953 41.4453 15.0911 40.9297 14.8828C40.4141 14.6745 39.9661 14.3776 39.5859 13.9922C39.2109 13.6016 38.9245 13.1432 38.7266 12.6172C38.5339 12.0859 38.4375 11.5 38.4375 10.8594C38.4375 10.2135 38.5365 9.6224 38.7344 9.08594C38.9323 8.54948 39.2161 8.09115 39.5859 7.71094C39.9557 7.33073 40.4036 7.03906 40.9297 6.83594C41.4557 6.6276 42.0365 6.52344 42.6719 6.52344C43.3177 6.52344 43.9036 6.6276 44.4297 6.83594C44.9557 7.04427 45.4062 7.34115 45.7812 7.72656C46.1562 8.11198 46.4401 8.57031 46.6328 9.10156C46.8307 9.63281 46.9297 10.2188 46.9297 10.8594ZM44.7891 10.8594C44.7891 9.98958 44.5964 9.3125 44.2109 8.82812C43.8307 8.34375 43.3177 8.10156 42.6719 8.10156C42.2552 8.10156 41.888 8.21094 41.5703 8.42969C41.2526 8.64323 41.0078 8.96094 40.8359 9.38281C40.6641 9.80469 40.5781 10.2969 40.5781 10.8594C40.5781 11.4167 40.6615 11.9036 40.8281 12.3203C41 12.737 41.2422 13.0573 41.5547 13.2812C41.8724 13.5 42.2448 13.6094 42.6719 13.6094C43.3177 13.6094 43.8307 13.3672 44.2109 12.8828C44.5964 12.3932 44.7891 11.7188 44.7891 10.8594ZM50.5547 7.70312V7.96094C50.9297 7.46615 51.3385 7.10417 51.7812 6.875C52.2292 6.64062 52.7422 6.52344 53.3203 6.52344C53.8828 6.52344 54.3854 6.64583 54.8281 6.89062C55.2708 7.13542 55.6016 7.48177 55.8203 7.92969C55.9609 8.1901 56.0521 8.47135 56.0938 8.77344C56.1354 9.07552 56.1562 9.46094 56.1562 9.92969V13.8984C56.1562 14.3255 56.0573 14.6484 55.8594 14.8672C55.6667 15.0859 55.4141 15.1953 55.1016 15.1953C54.7839 15.1953 54.526 15.0833 54.3281 14.8594C54.1302 14.6354 54.0312 14.3151 54.0312 13.8984V10.3438C54.0312 9.64062 53.9323 9.10417 53.7344 8.73438C53.5417 8.35938 53.1536 8.17188 52.5703 8.17188C52.1901 8.17188 51.8438 8.28646 51.5312 8.51562C51.2188 8.73958 50.9896 9.04948 50.8438 9.44531C50.7396 9.76302 50.6875 10.3568 50.6875 11.2266V13.8984C50.6875 14.3307 50.5859 14.6562 50.3828 14.875C50.1849 15.0885 49.9271 15.1953 49.6094 15.1953C49.3021 15.1953 49.0495 15.0833 48.8516 14.8594C48.6536 14.6354 48.5547 14.3151 48.5547 13.8984V7.73438C48.5547 7.32812 48.6432 7.02604 48.8203 6.82812C48.9974 6.625 49.2396 6.52344 49.5469 6.52344C49.7344 6.52344 49.9036 6.56771 50.0547 6.65625C50.2057 6.74479 50.3255 6.8776 50.4141 7.05469C50.5078 7.23177 50.5547 7.44792 50.5547 7.70312ZM65.1562 12.4062C65.1562 12.9948 65.013 13.5 64.7266 13.9219C64.4401 14.3385 64.0156 14.6562 63.4531 14.875C62.8958 15.0885 62.2161 15.1953 61.4141 15.1953C60.6484 15.1953 59.9922 15.0781 59.4453 14.8438C58.8984 14.6094 58.4948 14.3177 58.2344 13.9688C57.974 13.6146 57.8438 13.2604 57.8438 12.9062C57.8438 12.6719 57.9271 12.4714 58.0938 12.3047C58.2604 12.138 58.4714 12.0547 58.7266 12.0547C58.9505 12.0547 59.1224 12.1094 59.2422 12.2188C59.362 12.3281 59.4766 12.4818 59.5859 12.6797C59.8047 13.0599 60.0651 13.3438 60.3672 13.5312C60.6745 13.7188 61.0911 13.8125 61.6172 13.8125C62.0443 13.8125 62.3932 13.7188 62.6641 13.5312C62.9401 13.3385 63.0781 13.1198 63.0781 12.875C63.0781 12.5 62.9349 12.2266 62.6484 12.0547C62.3672 11.8828 61.901 11.7188 61.25 11.5625C60.5156 11.3802 59.9167 11.1901 59.4531 10.9922C58.9948 10.7891 58.6276 10.5234 58.3516 10.1953C58.0755 9.86719 57.9375 9.46354 57.9375 8.98438C57.9375 8.55729 58.0651 8.15365 58.3203 7.77344C58.5755 7.39323 58.9505 7.09115 59.4453 6.86719C59.9453 6.63802 60.5469 6.52344 61.25 6.52344C61.8021 6.52344 62.2969 6.58073 62.7344 6.69531C63.1771 6.8099 63.5443 6.96354 63.8359 7.15625C64.1328 7.34896 64.3568 7.5625 64.5078 7.79688C64.6641 8.03125 64.7422 8.26042 64.7422 8.48438C64.7422 8.72917 64.6589 8.92969 64.4922 9.08594C64.3307 9.24219 64.099 9.32031 63.7969 9.32031C63.5781 9.32031 63.3906 9.25781 63.2344 9.13281C63.0833 9.00781 62.9089 8.82031 62.7109 8.57031C62.5495 8.36198 62.3594 8.19531 62.1406 8.07031C61.9219 7.94531 61.625 7.88281 61.25 7.88281C60.8646 7.88281 60.5443 7.96615 60.2891 8.13281C60.0339 8.29427 59.9062 8.4974 59.9062 8.74219C59.9062 8.96615 60 9.15104 60.1875 9.29688C60.375 9.4375 60.6276 9.55469 60.9453 9.64844C61.263 9.74219 61.7005 9.85677 62.2578 9.99219C62.9193 10.1536 63.4583 10.3464 63.875 10.5703C64.2969 10.7943 64.6146 11.0599 64.8281 11.3672C65.0469 11.6693 65.1562 12.0156 65.1562 12.4062ZM72.5 13.9922V13.7188C72.2448 14.0417 71.9766 14.3125 71.6953 14.5312C71.4141 14.75 71.1068 14.9115 70.7734 15.0156C70.4401 15.125 70.0599 15.1797 69.6328 15.1797C69.1172 15.1797 68.6536 15.0729 68.2422 14.8594C67.8359 14.6458 67.5208 14.3516 67.2969 13.9766C67.0312 13.5234 66.8984 12.8724 66.8984 12.0234V7.79688C66.8984 7.36979 66.9948 7.05208 67.1875 6.84375C67.3802 6.63021 67.6354 6.52344 67.9531 6.52344C68.276 6.52344 68.5365 6.63021 68.7344 6.84375C68.9323 7.05729 69.0312 7.375 69.0312 7.79688V11.2109C69.0312 11.7057 69.0729 12.1224 69.1562 12.4609C69.2396 12.7943 69.388 13.0573 69.6016 13.25C69.8203 13.4375 70.1146 13.5312 70.4844 13.5312C70.8438 13.5312 71.1823 13.4245 71.5 13.2109C71.8177 12.9974 72.0495 12.7188 72.1953 12.375C72.3151 12.0729 72.375 11.4115 72.375 10.3906V7.79688C72.375 7.375 72.474 7.05729 72.6719 6.84375C72.8698 6.63021 73.1276 6.52344 73.4453 6.52344C73.763 6.52344 74.0182 6.63021 74.2109 6.84375C74.4036 7.05208 74.5 7.36979 74.5 7.79688V13.9766C74.5 14.3828 74.4062 14.6875 74.2188 14.8906C74.0365 15.0938 73.7995 15.1953 73.5078 15.1953C73.2161 15.1953 72.974 15.0911 72.7812 14.8828C72.5938 14.6693 72.5 14.3724 72.5 13.9922ZM76.6328 13.8984V4.64844C76.6328 4.22135 76.7266 3.89844 76.9141 3.67969C77.1068 3.46094 77.3646 3.35156 77.6875 3.35156C78.0104 3.35156 78.2708 3.46094 78.4688 3.67969C78.6667 3.89323 78.7656 4.21615 78.7656 4.64844V13.8984C78.7656 14.3307 78.6641 14.6562 78.4609 14.875C78.263 15.0885 78.0052 15.1953 77.6875 15.1953C77.375 15.1953 77.1198 15.0833 76.9219 14.8594C76.7292 14.6354 76.6328 14.3151 76.6328 13.8984ZM81.0938 6.71094H81.3281V5.42969C81.3281 5.08594 81.3359 4.81771 81.3516 4.625C81.3724 4.42708 81.4245 4.25781 81.5078 4.11719C81.5911 3.97135 81.7109 3.85417 81.8672 3.76562C82.0234 3.67188 82.1979 3.625 82.3906 3.625C82.6615 3.625 82.9062 3.72656 83.125 3.92969C83.2708 4.0651 83.362 4.23177 83.3984 4.42969C83.4401 4.6224 83.4609 4.89844 83.4609 5.25781V6.71094H84.2422C84.5443 6.71094 84.7734 6.78385 84.9297 6.92969C85.0911 7.07031 85.1719 7.2526 85.1719 7.47656C85.1719 7.76302 85.0573 7.96354 84.8281 8.07812C84.6042 8.19271 84.2812 8.25 83.8594 8.25H83.4609V12.1719C83.4609 12.5052 83.4714 12.763 83.4922 12.9453C83.5182 13.1224 83.5807 13.2682 83.6797 13.3828C83.7839 13.4922 83.9505 13.5469 84.1797 13.5469C84.3047 13.5469 84.474 13.526 84.6875 13.4844C84.901 13.4375 85.0677 13.4141 85.1875 13.4141C85.3594 13.4141 85.513 13.4844 85.6484 13.625C85.7891 13.7604 85.8594 13.9297 85.8594 14.1328C85.8594 14.4766 85.6719 14.7396 85.2969 14.9219C84.9219 15.1042 84.3828 15.1953 83.6797 15.1953C83.013 15.1953 82.5078 15.0833 82.1641 14.8594C81.8203 14.6354 81.5938 14.3255 81.4844 13.9297C81.3802 13.5339 81.3281 13.0052 81.3281 12.3438V8.25H81.0469C80.7396 8.25 80.5052 8.17708 80.3438 8.03125C80.1823 7.88542 80.1016 7.70052 80.1016 7.47656C80.1016 7.2526 80.1849 7.07031 80.3516 6.92969C80.5234 6.78385 80.7708 6.71094 81.0938 6.71094ZM88.7812 7.73438V13.8984C88.7812 14.3255 88.6797 14.6484 88.4766 14.8672C88.2734 15.0859 88.0156 15.1953 87.7031 15.1953C87.3906 15.1953 87.1354 15.0833 86.9375 14.8594C86.7448 14.6354 86.6484 14.3151 86.6484 13.8984V7.79688C86.6484 7.375 86.7448 7.05729 86.9375 6.84375C87.1354 6.63021 87.3906 6.52344 87.7031 6.52344C88.0156 6.52344 88.2734 6.63021 88.4766 6.84375C88.6797 7.05729 88.7812 7.35417 88.7812 7.73438ZM87.7266 5.53125C87.4297 5.53125 87.1745 5.4401 86.9609 5.25781C86.7526 5.07552 86.6484 4.81771 86.6484 4.48438C86.6484 4.18229 86.7552 3.9349 86.9688 3.74219C87.1875 3.54427 87.4401 3.44531 87.7266 3.44531C88.0026 3.44531 88.2474 3.53385 88.4609 3.71094C88.6745 3.88802 88.7812 4.14583 88.7812 4.48438C88.7812 4.8125 88.6771 5.07031 88.4688 5.25781C88.2604 5.4401 88.013 5.53125 87.7266 5.53125ZM92.9297 7.70312V7.96094C93.3047 7.46615 93.7135 7.10417 94.1562 6.875C94.6042 6.64062 95.1172 6.52344 95.6953 6.52344C96.2578 6.52344 96.7604 6.64583 97.2031 6.89062C97.6458 7.13542 97.9766 7.48177 98.1953 7.92969C98.3359 8.1901 98.4271 8.47135 98.4688 8.77344C98.5104 9.07552 98.5312 9.46094 98.5312 9.92969V13.8984C98.5312 14.3255 98.4323 14.6484 98.2344 14.8672C98.0417 15.0859 97.7891 15.1953 97.4766 15.1953C97.1589 15.1953 96.901 15.0833 96.7031 14.8594C96.5052 14.6354 96.4062 14.3151 96.4062 13.8984V10.3438C96.4062 9.64062 96.3073 9.10417 96.1094 8.73438C95.9167 8.35938 95.5286 8.17188 94.9453 8.17188C94.5651 8.17188 94.2188 8.28646 93.9062 8.51562C93.5938 8.73958 93.3646 9.04948 93.2188 9.44531C93.1146 9.76302 93.0625 10.3568 93.0625 11.2266V13.8984C93.0625 14.3307 92.9609 14.6562 92.7578 14.875C92.5599 15.0885 92.3021 15.1953 91.9844 15.1953C91.6771 15.1953 91.4245 15.0833 91.2266 14.8594C91.0286 14.6354 90.9297 14.3151 90.9297 13.8984V7.73438C90.9297 7.32812 91.0182 7.02604 91.1953 6.82812C91.3724 6.625 91.6146 6.52344 91.9219 6.52344C92.1094 6.52344 92.2786 6.56771 92.4297 6.65625C92.5807 6.74479 92.7005 6.8776 92.7891 7.05469C92.8828 7.23177 92.9297 7.44792 92.9297 7.70312ZM108.508 8.08594V14.2812C108.508 14.9896 108.432 15.599 108.281 16.1094C108.13 16.6198 107.888 17.0417 107.555 17.375C107.221 17.7083 106.784 17.9557 106.242 18.1172C105.706 18.2786 105.036 18.3594 104.234 18.3594C103.5 18.3594 102.844 18.2552 102.266 18.0469C101.688 17.8438 101.242 17.5781 100.93 17.25C100.617 16.9271 100.461 16.5938 100.461 16.25C100.461 15.9896 100.549 15.776 100.727 15.6094C100.904 15.4479 101.117 15.3672 101.367 15.3672C101.68 15.3672 101.953 15.5052 102.188 15.7812C102.302 15.9219 102.419 16.0625 102.539 16.2031C102.664 16.349 102.799 16.4714 102.945 16.5703C103.096 16.6745 103.276 16.75 103.484 16.7969C103.693 16.849 103.932 16.875 104.203 16.875C104.755 16.875 105.182 16.7969 105.484 16.6406C105.792 16.4896 106.005 16.276 106.125 16C106.25 15.724 106.323 15.4271 106.344 15.1094C106.365 14.7969 106.38 14.2917 106.391 13.5938C106.062 14.0521 105.682 14.401 105.25 14.6406C104.823 14.8802 104.312 15 103.719 15C103.005 15 102.38 14.8177 101.844 14.4531C101.312 14.0885 100.904 13.5781 100.617 12.9219C100.331 12.2656 100.188 11.5078 100.188 10.6484C100.188 10.0078 100.273 9.42969 100.445 8.91406C100.622 8.39844 100.872 7.96354 101.195 7.60938C101.518 7.25521 101.891 6.98958 102.312 6.8125C102.734 6.63021 103.198 6.53906 103.703 6.53906C104.307 6.53906 104.831 6.65625 105.273 6.89062C105.716 7.11979 106.128 7.48177 106.508 7.97656V7.6875C106.508 7.31771 106.599 7.03125 106.781 6.82812C106.964 6.625 107.198 6.52344 107.484 6.52344C107.896 6.52344 108.169 6.65885 108.305 6.92969C108.44 7.19531 108.508 7.58073 108.508 8.08594ZM102.328 10.7891C102.328 11.6536 102.516 12.3073 102.891 12.75C103.271 13.1927 103.76 13.4141 104.359 13.4141C104.714 13.4141 105.047 13.3203 105.359 13.1328C105.677 12.9401 105.935 12.6536 106.133 12.2734C106.331 11.888 106.43 11.4219 106.43 10.875C106.43 10.0052 106.237 9.32812 105.852 8.84375C105.471 8.35938 104.969 8.11719 104.344 8.11719C103.734 8.11719 103.245 8.34896 102.875 8.8125C102.51 9.27604 102.328 9.9349 102.328 10.7891Z" fill="black"/>
</svg>
