<svg width="128" height="19" viewBox="0 0 128 19" fill="none" xmlns="http://www.w3.org/2000/svg">
<path d="M8.59375 11.4766V13.6875L0.734375 10.2812V8.39062L8.59375 4.98438V7.21094L3.11719 9.32031L8.59375 11.4766ZM15.0234 10.5391H12.8984V13.7812C12.8984 14.2448 12.7891 14.5964 12.5703 14.8359C12.3516 15.0755 12.0755 15.1953 11.7422 15.1953C11.3932 15.1953 11.112 15.0781 10.8984 14.8438C10.6849 14.6042 10.5781 14.2552 10.5781 13.7969V4.96875C10.5781 4.45833 10.6953 4.09375 10.9297 3.875C11.1641 3.65625 11.5365 3.54688 12.0469 3.54688H15.0234C15.9036 3.54688 16.5807 3.61458 17.0547 3.75C17.5234 3.88021 17.9271 4.09635 18.2656 4.39844C18.6094 4.70052 18.8698 5.07031 19.0469 5.50781C19.224 5.94531 19.3125 6.4375 19.3125 6.98438C19.3125 8.15104 18.9531 9.03646 18.2344 9.64062C17.5156 10.2396 16.4453 10.5391 15.0234 10.5391ZM14.4609 5.28906H12.8984V8.78906H14.4609C15.0078 8.78906 15.4635 8.73177 15.8281 8.61719C16.1979 8.5026 16.4792 8.3151 16.6719 8.05469C16.8646 7.79427 16.9609 7.45312 16.9609 7.03125C16.9609 6.52604 16.8125 6.11458 16.5156 5.79688C16.1823 5.45833 15.4974 5.28906 14.4609 5.28906ZM29.9531 11.5625C29.9531 12.2552 29.7734 12.8776 29.4141 13.4297C29.0599 13.9818 28.5391 14.4141 27.8516 14.7266C27.1641 15.0391 26.349 15.1953 25.4062 15.1953C24.276 15.1953 23.3438 14.9818 22.6094 14.5547C22.0885 14.2474 21.6641 13.8385 21.3359 13.3281C21.013 12.8125 20.8516 12.3125 20.8516 11.8281C20.8516 11.5469 20.9479 11.3073 21.1406 11.1094C21.3385 10.9062 21.5885 10.8047 21.8906 10.8047C22.1354 10.8047 22.3411 10.8828 22.5078 11.0391C22.6797 11.1953 22.8255 11.4271 22.9453 11.7344C23.0911 12.099 23.2474 12.4036 23.4141 12.6484C23.5859 12.8932 23.8255 13.0964 24.1328 13.2578C24.4401 13.4141 24.8438 13.4922 25.3438 13.4922C26.0312 13.4922 26.5885 13.3333 27.0156 13.0156C27.4479 12.6927 27.6641 12.2917 27.6641 11.8125C27.6641 11.4323 27.5469 11.125 27.3125 10.8906C27.0833 10.651 26.7839 10.4688 26.4141 10.3438C26.0495 10.2188 25.5599 10.0859 24.9453 9.94531C24.1224 9.7526 23.4323 9.52865 22.875 9.27344C22.3229 9.01302 21.8828 8.66146 21.5547 8.21875C21.2318 7.77083 21.0703 7.21615 21.0703 6.55469C21.0703 5.92448 21.2422 5.36458 21.5859 4.875C21.9297 4.38542 22.4271 4.01042 23.0781 3.75C23.7292 3.48438 24.4948 3.35156 25.375 3.35156C26.0781 3.35156 26.6849 3.4401 27.1953 3.61719C27.7109 3.78906 28.138 4.02083 28.4766 4.3125C28.8151 4.59896 29.0625 4.90104 29.2188 5.21875C29.375 5.53646 29.4531 5.84635 29.4531 6.14844C29.4531 6.42448 29.3542 6.67448 29.1562 6.89844C28.9635 7.11719 28.7214 7.22656 28.4297 7.22656C28.1641 7.22656 27.9609 7.16146 27.8203 7.03125C27.6849 6.89583 27.5365 6.67708 27.375 6.375C27.1667 5.94271 26.9167 5.60677 26.625 5.36719C26.3333 5.1224 25.8646 5 25.2188 5C24.6198 5 24.1354 5.13281 23.7656 5.39844C23.401 5.65885 23.2188 5.97396 23.2188 6.34375C23.2188 6.57292 23.2812 6.77083 23.4062 6.9375C23.5312 7.10417 23.7031 7.2474 23.9219 7.36719C24.1406 7.48698 24.362 7.58073 24.5859 7.64844C24.8099 7.71615 25.1797 7.8151 25.6953 7.94531C26.3411 8.09635 26.9245 8.26302 27.4453 8.44531C27.9714 8.6276 28.4167 8.84896 28.7812 9.10938C29.151 9.36979 29.4375 9.70052 29.6406 10.1016C29.849 10.4974 29.9531 10.9844 29.9531 11.5625ZM39.2656 10.2812L31.4062 13.7031V11.4922L36.8984 9.33594L31.4062 7.21094V5.01562L39.2656 8.40625V10.2812Z" fill="black"/>
<path d="M42 3L42 16" stroke="black" stroke-linecap="round"/>
<path d="M55.0078 11.3828C55.0078 11.7474 54.9167 12.1432 54.7344 12.5703C54.5573 12.9922 54.276 13.4089 53.8906 13.8203C53.5052 14.2266 53.013 14.5573 52.4141 14.8125C51.8151 15.0677 51.1172 15.1953 50.3203 15.1953C49.7161 15.1953 49.1667 15.138 48.6719 15.0234C48.1771 14.9089 47.7266 14.7318 47.3203 14.4922C46.9193 14.2474 46.5495 13.9271 46.2109 13.5312C45.9089 13.1719 45.651 12.7708 45.4375 12.3281C45.224 11.8802 45.0625 11.4036 44.9531 10.8984C44.849 10.3932 44.7969 9.85677 44.7969 9.28906C44.7969 8.36719 44.9297 7.54167 45.1953 6.8125C45.4661 6.08333 45.8516 5.46094 46.3516 4.94531C46.8516 4.42448 47.4375 4.02865 48.1094 3.75781C48.7812 3.48698 49.4974 3.35156 50.2578 3.35156C51.1849 3.35156 52.0104 3.53646 52.7344 3.90625C53.4583 4.27604 54.013 4.73438 54.3984 5.28125C54.7839 5.82292 54.9766 6.33594 54.9766 6.82031C54.9766 7.08594 54.8828 7.32031 54.6953 7.52344C54.5078 7.72656 54.2812 7.82812 54.0156 7.82812C53.7188 7.82812 53.4948 7.75781 53.3438 7.61719C53.1979 7.47656 53.0339 7.23438 52.8516 6.89062C52.5495 6.32292 52.1927 5.89844 51.7812 5.61719C51.375 5.33594 50.8724 5.19531 50.2734 5.19531C49.3203 5.19531 48.5599 5.55729 47.9922 6.28125C47.4297 7.00521 47.1484 8.03385 47.1484 9.36719C47.1484 10.2578 47.2734 11 47.5234 11.5938C47.7734 12.1823 48.1276 12.6224 48.5859 12.9141C49.0443 13.2057 49.5807 13.3516 50.1953 13.3516C50.862 13.3516 51.4245 13.1875 51.8828 12.8594C52.3464 12.526 52.6953 12.0391 52.9297 11.3984C53.0286 11.0964 53.151 10.8516 53.2969 10.6641C53.4427 10.4714 53.6771 10.375 54 10.375C54.276 10.375 54.513 10.4714 54.7109 10.6641C54.9089 10.8568 55.0078 11.0964 55.0078 11.3828ZM64.9297 10.8594C64.9297 11.4948 64.8307 12.0807 64.6328 12.6172C64.4349 13.1536 64.1484 13.6146 63.7734 14C63.3984 14.3854 62.9505 14.6823 62.4297 14.8906C61.9089 15.0938 61.3229 15.1953 60.6719 15.1953C60.026 15.1953 59.4453 15.0911 58.9297 14.8828C58.4141 14.6745 57.9661 14.3776 57.5859 13.9922C57.2109 13.6016 56.9245 13.1432 56.7266 12.6172C56.5339 12.0859 56.4375 11.5 56.4375 10.8594C56.4375 10.2135 56.5365 9.6224 56.7344 9.08594C56.9323 8.54948 57.2161 8.09115 57.5859 7.71094C57.9557 7.33073 58.4036 7.03906 58.9297 6.83594C59.4557 6.6276 60.0365 6.52344 60.6719 6.52344C61.3177 6.52344 61.9036 6.6276 62.4297 6.83594C62.9557 7.04427 63.4062 7.34115 63.7812 7.72656C64.1562 8.11198 64.4401 8.57031 64.6328 9.10156C64.8307 9.63281 64.9297 10.2188 64.9297 10.8594ZM62.7891 10.8594C62.7891 9.98958 62.5964 9.3125 62.2109 8.82812C61.8307 8.34375 61.3177 8.10156 60.6719 8.10156C60.2552 8.10156 59.888 8.21094 59.5703 8.42969C59.2526 8.64323 59.0078 8.96094 58.8359 9.38281C58.6641 9.80469 58.5781 10.2969 58.5781 10.8594C58.5781 11.4167 58.6615 11.9036 58.8281 12.3203C59 12.737 59.2422 13.0573 59.5547 13.2812C59.8724 13.5 60.2448 13.6094 60.6719 13.6094C61.3177 13.6094 61.8307 13.3672 62.2109 12.8828C62.5964 12.3932 62.7891 11.7188 62.7891 10.8594ZM68.5547 7.70312V7.96094C68.9297 7.46615 69.3385 7.10417 69.7812 6.875C70.2292 6.64062 70.7422 6.52344 71.3203 6.52344C71.8828 6.52344 72.3854 6.64583 72.8281 6.89062C73.2708 7.13542 73.6016 7.48177 73.8203 7.92969C73.9609 8.1901 74.0521 8.47135 74.0938 8.77344C74.1354 9.07552 74.1562 9.46094 74.1562 9.92969V13.8984C74.1562 14.3255 74.0573 14.6484 73.8594 14.8672C73.6667 15.0859 73.4141 15.1953 73.1016 15.1953C72.7839 15.1953 72.526 15.0833 72.3281 14.8594C72.1302 14.6354 72.0312 14.3151 72.0312 13.8984V10.3438C72.0312 9.64062 71.9323 9.10417 71.7344 8.73438C71.5417 8.35938 71.1536 8.17188 70.5703 8.17188C70.1901 8.17188 69.8438 8.28646 69.5312 8.51562C69.2188 8.73958 68.9896 9.04948 68.8438 9.44531C68.7396 9.76302 68.6875 10.3568 68.6875 11.2266V13.8984C68.6875 14.3307 68.5859 14.6562 68.3828 14.875C68.1849 15.0885 67.9271 15.1953 67.6094 15.1953C67.3021 15.1953 67.0495 15.0833 66.8516 14.8594C66.6536 14.6354 66.5547 14.3151 66.5547 13.8984V7.73438C66.5547 7.32812 66.6432 7.02604 66.8203 6.82812C66.9974 6.625 67.2396 6.52344 67.5469 6.52344C67.7344 6.52344 67.9036 6.56771 68.0547 6.65625C68.2057 6.74479 68.3255 6.8776 68.4141 7.05469C68.5078 7.23177 68.5547 7.44792 68.5547 7.70312ZM83.1562 12.4062C83.1562 12.9948 83.013 13.5 82.7266 13.9219C82.4401 14.3385 82.0156 14.6562 81.4531 14.875C80.8958 15.0885 80.2161 15.1953 79.4141 15.1953C78.6484 15.1953 77.9922 15.0781 77.4453 14.8438C76.8984 14.6094 76.4948 14.3177 76.2344 13.9688C75.974 13.6146 75.8438 13.2604 75.8438 12.9062C75.8438 12.6719 75.9271 12.4714 76.0938 12.3047C76.2604 12.138 76.4714 12.0547 76.7266 12.0547C76.9505 12.0547 77.1224 12.1094 77.2422 12.2188C77.362 12.3281 77.4766 12.4818 77.5859 12.6797C77.8047 13.0599 78.0651 13.3438 78.3672 13.5312C78.6745 13.7188 79.0911 13.8125 79.6172 13.8125C80.0443 13.8125 80.3932 13.7188 80.6641 13.5312C80.9401 13.3385 81.0781 13.1198 81.0781 12.875C81.0781 12.5 80.9349 12.2266 80.6484 12.0547C80.3672 11.8828 79.901 11.7188 79.25 11.5625C78.5156 11.3802 77.9167 11.1901 77.4531 10.9922C76.9948 10.7891 76.6276 10.5234 76.3516 10.1953C76.0755 9.86719 75.9375 9.46354 75.9375 8.98438C75.9375 8.55729 76.0651 8.15365 76.3203 7.77344C76.5755 7.39323 76.9505 7.09115 77.4453 6.86719C77.9453 6.63802 78.5469 6.52344 79.25 6.52344C79.8021 6.52344 80.2969 6.58073 80.7344 6.69531C81.1771 6.8099 81.5443 6.96354 81.8359 7.15625C82.1328 7.34896 82.3568 7.5625 82.5078 7.79688C82.6641 8.03125 82.7422 8.26042 82.7422 8.48438C82.7422 8.72917 82.6589 8.92969 82.4922 9.08594C82.3307 9.24219 82.099 9.32031 81.7969 9.32031C81.5781 9.32031 81.3906 9.25781 81.2344 9.13281C81.0833 9.00781 80.9089 8.82031 80.7109 8.57031C80.5495 8.36198 80.3594 8.19531 80.1406 8.07031C79.9219 7.94531 79.625 7.88281 79.25 7.88281C78.8646 7.88281 78.5443 7.96615 78.2891 8.13281C78.0339 8.29427 77.9062 8.4974 77.9062 8.74219C77.9062 8.96615 78 9.15104 78.1875 9.29688C78.375 9.4375 78.6276 9.55469 78.9453 9.64844C79.263 9.74219 79.7005 9.85677 80.2578 9.99219C80.9193 10.1536 81.4583 10.3464 81.875 10.5703C82.2969 10.7943 82.6146 11.0599 82.8281 11.3672C83.0469 11.6693 83.1562 12.0156 83.1562 12.4062ZM90.5 13.9922V13.7188C90.2448 14.0417 89.9766 14.3125 89.6953 14.5312C89.4141 14.75 89.1068 14.9115 88.7734 15.0156C88.4401 15.125 88.0599 15.1797 87.6328 15.1797C87.1172 15.1797 86.6536 15.0729 86.2422 14.8594C85.8359 14.6458 85.5208 14.3516 85.2969 13.9766C85.0312 13.5234 84.8984 12.8724 84.8984 12.0234V7.79688C84.8984 7.36979 84.9948 7.05208 85.1875 6.84375C85.3802 6.63021 85.6354 6.52344 85.9531 6.52344C86.276 6.52344 86.5365 6.63021 86.7344 6.84375C86.9323 7.05729 87.0312 7.375 87.0312 7.79688V11.2109C87.0312 11.7057 87.0729 12.1224 87.1562 12.4609C87.2396 12.7943 87.388 13.0573 87.6016 13.25C87.8203 13.4375 88.1146 13.5312 88.4844 13.5312C88.8438 13.5312 89.1823 13.4245 89.5 13.2109C89.8177 12.9974 90.0495 12.7188 90.1953 12.375C90.3151 12.0729 90.375 11.4115 90.375 10.3906V7.79688C90.375 7.375 90.474 7.05729 90.6719 6.84375C90.8698 6.63021 91.1276 6.52344 91.4453 6.52344C91.763 6.52344 92.0182 6.63021 92.2109 6.84375C92.4036 7.05208 92.5 7.36979 92.5 7.79688V13.9766C92.5 14.3828 92.4062 14.6875 92.2188 14.8906C92.0365 15.0938 91.7995 15.1953 91.5078 15.1953C91.2161 15.1953 90.974 15.0911 90.7812 14.8828C90.5938 14.6693 90.5 14.3724 90.5 13.9922ZM94.6328 13.8984V4.64844C94.6328 4.22135 94.7266 3.89844 94.9141 3.67969C95.1068 3.46094 95.3646 3.35156 95.6875 3.35156C96.0104 3.35156 96.2708 3.46094 96.4688 3.67969C96.6667 3.89323 96.7656 4.21615 96.7656 4.64844V13.8984C96.7656 14.3307 96.6641 14.6562 96.4609 14.875C96.263 15.0885 96.0052 15.1953 95.6875 15.1953C95.375 15.1953 95.1198 15.0833 94.9219 14.8594C94.7292 14.6354 94.6328 14.3151 94.6328 13.8984ZM99.0938 6.71094H99.3281V5.42969C99.3281 5.08594 99.3359 4.81771 99.3516 4.625C99.3724 4.42708 99.4245 4.25781 99.5078 4.11719C99.5911 3.97135 99.7109 3.85417 99.8672 3.76562C100.023 3.67188 100.198 3.625 100.391 3.625C100.661 3.625 100.906 3.72656 101.125 3.92969C101.271 4.0651 101.362 4.23177 101.398 4.42969C101.44 4.6224 101.461 4.89844 101.461 5.25781V6.71094H102.242C102.544 6.71094 102.773 6.78385 102.93 6.92969C103.091 7.07031 103.172 7.2526 103.172 7.47656C103.172 7.76302 103.057 7.96354 102.828 8.07812C102.604 8.19271 102.281 8.25 101.859 8.25H101.461V12.1719C101.461 12.5052 101.471 12.763 101.492 12.9453C101.518 13.1224 101.581 13.2682 101.68 13.3828C101.784 13.4922 101.951 13.5469 102.18 13.5469C102.305 13.5469 102.474 13.526 102.688 13.4844C102.901 13.4375 103.068 13.4141 103.188 13.4141C103.359 13.4141 103.513 13.4844 103.648 13.625C103.789 13.7604 103.859 13.9297 103.859 14.1328C103.859 14.4766 103.672 14.7396 103.297 14.9219C102.922 15.1042 102.383 15.1953 101.68 15.1953C101.013 15.1953 100.508 15.0833 100.164 14.8594C99.8203 14.6354 99.5938 14.3255 99.4844 13.9297C99.3802 13.5339 99.3281 13.0052 99.3281 12.3438V8.25H99.0469C98.7396 8.25 98.5052 8.17708 98.3438 8.03125C98.1823 7.88542 98.1016 7.70052 98.1016 7.47656C98.1016 7.2526 98.1849 7.07031 98.3516 6.92969C98.5234 6.78385 98.7708 6.71094 99.0938 6.71094ZM106.781 7.73438V13.8984C106.781 14.3255 106.68 14.6484 106.477 14.8672C106.273 15.0859 106.016 15.1953 105.703 15.1953C105.391 15.1953 105.135 15.0833 104.938 14.8594C104.745 14.6354 104.648 14.3151 104.648 13.8984V7.79688C104.648 7.375 104.745 7.05729 104.938 6.84375C105.135 6.63021 105.391 6.52344 105.703 6.52344C106.016 6.52344 106.273 6.63021 106.477 6.84375C106.68 7.05729 106.781 7.35417 106.781 7.73438ZM105.727 5.53125C105.43 5.53125 105.174 5.4401 104.961 5.25781C104.753 5.07552 104.648 4.81771 104.648 4.48438C104.648 4.18229 104.755 3.9349 104.969 3.74219C105.188 3.54427 105.44 3.44531 105.727 3.44531C106.003 3.44531 106.247 3.53385 106.461 3.71094C106.674 3.88802 106.781 4.14583 106.781 4.48438C106.781 4.8125 106.677 5.07031 106.469 5.25781C106.26 5.4401 106.013 5.53125 105.727 5.53125ZM110.93 7.70312V7.96094C111.305 7.46615 111.714 7.10417 112.156 6.875C112.604 6.64062 113.117 6.52344 113.695 6.52344C114.258 6.52344 114.76 6.64583 115.203 6.89062C115.646 7.13542 115.977 7.48177 116.195 7.92969C116.336 8.1901 116.427 8.47135 116.469 8.77344C116.51 9.07552 116.531 9.46094 116.531 9.92969V13.8984C116.531 14.3255 116.432 14.6484 116.234 14.8672C116.042 15.0859 115.789 15.1953 115.477 15.1953C115.159 15.1953 114.901 15.0833 114.703 14.8594C114.505 14.6354 114.406 14.3151 114.406 13.8984V10.3438C114.406 9.64062 114.307 9.10417 114.109 8.73438C113.917 8.35938 113.529 8.17188 112.945 8.17188C112.565 8.17188 112.219 8.28646 111.906 8.51562C111.594 8.73958 111.365 9.04948 111.219 9.44531C111.115 9.76302 111.062 10.3568 111.062 11.2266V13.8984C111.062 14.3307 110.961 14.6562 110.758 14.875C110.56 15.0885 110.302 15.1953 109.984 15.1953C109.677 15.1953 109.424 15.0833 109.227 14.8594C109.029 14.6354 108.93 14.3151 108.93 13.8984V7.73438C108.93 7.32812 109.018 7.02604 109.195 6.82812C109.372 6.625 109.615 6.52344 109.922 6.52344C110.109 6.52344 110.279 6.56771 110.43 6.65625C110.581 6.74479 110.701 6.8776 110.789 7.05469C110.883 7.23177 110.93 7.44792 110.93 7.70312ZM126.508 8.08594V14.2812C126.508 14.9896 126.432 15.599 126.281 16.1094C126.13 16.6198 125.888 17.0417 125.555 17.375C125.221 17.7083 124.784 17.9557 124.242 18.1172C123.706 18.2786 123.036 18.3594 122.234 18.3594C121.5 18.3594 120.844 18.2552 120.266 18.0469C119.688 17.8438 119.242 17.5781 118.93 17.25C118.617 16.9271 118.461 16.5938 118.461 16.25C118.461 15.9896 118.549 15.776 118.727 15.6094C118.904 15.4479 119.117 15.3672 119.367 15.3672C119.68 15.3672 119.953 15.5052 120.188 15.7812C120.302 15.9219 120.419 16.0625 120.539 16.2031C120.664 16.349 120.799 16.4714 120.945 16.5703C121.096 16.6745 121.276 16.75 121.484 16.7969C121.693 16.849 121.932 16.875 122.203 16.875C122.755 16.875 123.182 16.7969 123.484 16.6406C123.792 16.4896 124.005 16.276 124.125 16C124.25 15.724 124.323 15.4271 124.344 15.1094C124.365 14.7969 124.38 14.2917 124.391 13.5938C124.062 14.0521 123.682 14.401 123.25 14.6406C122.823 14.8802 122.312 15 121.719 15C121.005 15 120.38 14.8177 119.844 14.4531C119.312 14.0885 118.904 13.5781 118.617 12.9219C118.331 12.2656 118.188 11.5078 118.188 10.6484C118.188 10.0078 118.273 9.42969 118.445 8.91406C118.622 8.39844 118.872 7.96354 119.195 7.60938C119.518 7.25521 119.891 6.98958 120.312 6.8125C120.734 6.63021 121.198 6.53906 121.703 6.53906C122.307 6.53906 122.831 6.65625 123.273 6.89062C123.716 7.11979 124.128 7.48177 124.508 7.97656V7.6875C124.508 7.31771 124.599 7.03125 124.781 6.82812C124.964 6.625 125.198 6.52344 125.484 6.52344C125.896 6.52344 126.169 6.65885 126.305 6.92969C126.44 7.19531 126.508 7.58073 126.508 8.08594ZM120.328 10.7891C120.328 11.6536 120.516 12.3073 120.891 12.75C121.271 13.1927 121.76 13.4141 122.359 13.4141C122.714 13.4141 123.047 13.3203 123.359 13.1328C123.677 12.9401 123.935 12.6536 124.133 12.2734C124.331 11.888 124.43 11.4219 124.43 10.875C124.43 10.0052 124.237 9.32812 123.852 8.84375C123.471 8.35938 122.969 8.11719 122.344 8.11719C121.734 8.11719 121.245 8.34896 120.875 8.8125C120.51 9.27604 120.328 9.9349 120.328 10.7891Z" fill="black"/>
</svg>
